<svg xmlns="http://www.w3.org/2000/svg" width="333.3" height="238.8" viewBox="0 0 333.3 238.8">
  <title>fantasy-raffles-logo</title>
  <g style="isolation: isolate">
    <g id="Layer_2" data-name="Layer 2">
      <g id="Layer_1-2" data-name="Layer 1">
        <g>
          <path d="M332,187.8,300.4,67.8h-19l-5.1-7.9,4.1-17.9H260.4l-1.3-7.4H242.4c-1.7-8.9-3.4-17.9-4.9-26.9L237.2,6h-1.3c-3.7-.1-5.3-1.1-5.9-3.7L229.8,1H219.6l.2,1.8a2.8,2.8,0,0,1-.4,2.2c-.6.6-1.9.9-3.9.9h0c-4.3,0-5.3-1.4-5.7-3.6L209.6,1H199.5V2.7a5.8,5.8,0,0,1,0,.7A2.4,2.4,0,0,1,199,5c-.6.7-1.9,1-4,1h-2c-2.1-.3-2.9-1.2-3.2-2.6V1H178.2V2.7a12.2,12.2,0,0,1-3.1,9.2,13.4,13.4,0,0,1-9.9,3.7h0a13.5,13.5,0,0,1-9.9-3.7,12.3,12.3,0,0,1-3.2-9.2V1H140.5V2.8a4.3,4.3,0,0,1-.3,1.1l-.2.3c-.6,1.1-2,1.7-4.9,1.7h-.1a7.7,7.7,0,0,1-3.3-.6L131,5a3,3,0,0,1-.6-2.3V1H120.4l-.2,1.4a4.7,4.7,0,0,1-.6,1.8c-.7,1.1-2.1,1.8-5,1.8h0c-2,0-3.3-.3-3.9-1a2.2,2.2,0,0,1-.5-1.5,5.8,5.8,0,0,1,0-.7l.2-1.8H100.2L100,2.3c-.5,2.7-2.1,3.7-5.9,3.7H92.7l-.2,1.3C91,16,89.5,24.6,87.9,33H69.6l-1.4,7.5H48.3l3.8,18.2-5.2,8H33.2L1.2,188s26.3,3.3,43.7,4.7L31.4,229.9h5.5c5.9,0,5.7,4.6,5.3,5.7l-.7,2.2H63.7a12.1,12.1,0,0,1,11.5-7.9c8.9,0,5.7,7.9,5.7,7.9h20.5a10.5,10.5,0,0,1,10.5-7.9c8.7,0,6.8,7.9,6.8,7.9h25l.2-1.5c.9-8.7,9.1-15.7,22.2-15.7s21.4,7.1,22.3,15.7l.2,1.5h23.3s-.8-7.9,7.5-7.9,9.7,7.9,9.7,7.9h20.5s-1.2-7.9,6.5-7.9,10.7,7.9,10.7,7.9h22.2l-.8-2.2c-.4-1.1,0-5.7,6-5.7h5.5s-8.3-21.5-14.3-37.9C286.9,192.2,332,187.8,332,187.8Z" fill="#fff" stroke="#fff" stroke-miterlimit="10" stroke-width="1.94"/>
          <path d="M7.5,183.3a1437.6,1437.6,0,0,0,161.4,9.1c89.6,0,156.6-9.1,156.6-9.1l-9.3-33.9L307,115.7H35.1L21.2,149.4Z" fill="#00344d"/>
          <g>
            <path d="M291.7,225C266,152.6,248.6,79.9,235.9,7.6c-3.6-.1-6.6-.9-7.4-5h-7c.5,4.1-2.3,5-5.9,5s-6.6-.9-7.3-5h-7c.3,4.1-2.6,5-6.2,5s-6.6-.9-7-5h-8.2c.4,9.4-6.2,14.6-14.6,14.6s-15-5.2-14.7-14.6H142c-.4,4.1-3.4,5-7,5s-6.4-.9-6.2-5h-7c-.6,4.1-3.6,5-7.2,5s-6.4-.9-5.9-5h-7c-.8,4.1-3.9,5-7.5,5C81.8,79.9,64.7,152.6,39.3,225c6.5,0,10.7,3.5,9.2,7.7H61.5c1.3-4.2,7.6-7.7,14.2-7.7s11.1,3.4,10.1,7.7H98.8c.8-4.2,6.8-7.7,13.4-7.7s11.5,3.4,11,7.7h15.9c1-9.2,12.9-16.7,26.9-16.7s26,7.5,27,16.7h15c-.5-4.2,4.4-7.7,10.9-7.7s12.6,3.4,13.4,7.7h12.9c-1-4.2,3.5-7.7,10.1-7.7s12.9,3.4,14.3,7.7h12.9C281.2,228.5,285.3,225.1,291.7,225Z" fill="#00a9ea"/>
            <g>
              <path d="M255.2,209.9H75.7l.3-1.2h0l.6-2.5a5.7,5.7,0,0,0,.1-.6c0-.2,0-.3,0-.5a4.4,4.4,0,0,0-.1-1.1,5.4,5.4,0,0,0-2.7-3.3,11.1,11.1,0,0,0-4.6-1.4H62.9l.4-1.3,2.8-10.4,2.8-10.4,2.7-10.4,2.6-10.4,2.5-10.5,2.4-10.5,2.4-10.5,2.3-10.5q2.2-10.5,4.3-21.1t4.1-21.1Q94.1,61.6,95.9,51t3.5-21.2h0v-.4h3.6l1-.2a7.6,7.6,0,0,0,1.9-.7l1.7-1.2a9.7,9.7,0,0,0,2.4-3.3,9.1,9.1,0,0,0,.6-2c.1-.3.1-.7.2-1l.2-1.1h0v-.3H219.2v.4l.2,1.1c.1.3.1.7.2,1a6.9,6.9,0,0,0,.2,1l.3.9a9.7,9.7,0,0,0,2.3,3.3l1.6,1.2a7.6,7.6,0,0,0,1.9.7l1,.2h3.6v.5q1.8,10.6,3.6,21.2t3.9,21.2q2,10.6,4.1,21.1t4.4,21.1l2.3,10.5,2.4,10.5,2.5,10.5,2.6,10.5,2.6,10.4,2.7,10.4,2.8,10.4,2.9,10.4.3,1.2h-6.4a11.1,11.1,0,0,0-4.6,1.4,5.4,5.4,0,0,0-2.7,3.4,4.5,4.5,0,0,0,.1,2.1Zm-2.5-1.9-.3-1.3a6.3,6.3,0,0,1,1.3-5.8,8.6,8.6,0,0,1,2.3-1.9,13,13,0,0,1,5.4-1.6h5.3l-.9,1.2-2.8-10.4-2.8-10.4-2.7-10.4-2.6-10.5-2.5-10.5-2.4-10.5-2.4-10.5-2.3-10.5q-2.2-10.5-4.3-21.1t-4-21.2q-1.9-10.6-3.8-21.2t-3.5-21.3l.6.5h-3.3l-1.1-.2a8.7,8.7,0,0,1-2.1-.9,10.3,10.3,0,0,1-1.8-1.3,10.7,10.7,0,0,1-2.6-3.7,9.9,9.9,0,0,1-.4-1.1,8,8,0,0,1-.2-1.1c-.1-.4-.1-.7-.2-1.1V19.9l.5.4H111.2l.4-.3h0V21c-.1.4-.1.7-.2,1.1a9.9,9.9,0,0,1-.6,2.1,10.6,10.6,0,0,1-2.5,3.6,10.1,10.1,0,0,1-1.8,1.3,8.5,8.5,0,0,1-2.1.9l-1.1.2H99.9l.5-.4h0Q98.8,40.6,97,51.2T93.4,72.4Q91.5,83,89.4,93.6t-4.2,21.1L83,125.2l-2.3,10.5-2.4,10.5-2.5,10.5-2.5,10.5-2.6,10.4L68,188.1l-2.8,10.4-1-1.3h5.3a13.1,13.1,0,0,1,5.4,1.7,8.7,8.7,0,0,1,2.3,1.9,6.6,6.6,0,0,1,1.4,2.7,6.4,6.4,0,0,1,.2,1.5,7.1,7.1,0,0,1-.1.8c0,.3-.1.4-.1.7l-.6,2.5h0l-.9-1.2Z" fill="#fff"/>
              <path d="M86,201.5H244.9c.3-5.3,5.2-9.4,12.4-10.5-13.2-52-23.2-104.2-31.2-156.2A15.5,15.5,0,0,1,215,24.3H115.1A15.4,15.4,0,0,1,104,34.8C96.3,86.8,86.5,139,73.6,191,80.7,192.1,85.7,196.2,86,201.5Z" fill="none" stroke="#fff" stroke-miterlimit="10" stroke-width="3.56"/>
              <g opacity="0.24" style="mix-blend-mode: multiply">
                <path d="M89.6,32.4C83,64.6,66.3,139.4,56.9,171.6c.1,0,35.8-12.4,107.3-12.4s109.5,12.4,109.6,12.4c-9.5-32.2-26.5-106.5-33.3-138.7C184.3,32.9,145.9,32.4,89.6,32.4Z" fill="#231f20"/>
              </g>
            </g>
            <path d="M164.2,162.8q2.6,6.2,5.4,12.3H187l-13.9,7.6q2.9,6.2,6,12.3l-14.9-7.6L149.3,195q3.1-6.2,6-12.3l-13.9-7.6h17.4Q161.6,169,164.2,162.8Z" fill="#fff"/>
            <path d="M114.5,166.3l1.8,6.2H125l-7.5,3.8,1.9,6.2-6.7-3.8-7.8,3.8,3.7-6.2-6.4-3.8H111Z" fill="#fff"/>
            <path d="M213.9,166.3l3.5,6.2h8.7l-6.4,3.8,3.7,6.2-7.8-3.8-6.7,3.8,2-6.2-7.5-3.8h8.7Z" fill="#fff"/>
          </g>
          <g>
            <polygon points="83.6 75.8 88.5 42.1 50.3 41.9 53.9 58.8 43.1 75.6 83.6 75.8" fill="#ec5a28"/>
            <polygon points="278.4 43.5 240.2 43.2 244.7 76.6 285.2 76.8 274.6 60.1 278.4 43.5" fill="#ec5a28"/>
          </g>
          <polygon points="69.6 68.2 60.2 68.1 65.2 42 74.1 42 69.6 68.2" fill="#c04a1d"/>
          <polygon points="268.3 69.3 259 69.2 254.8 43.3 263.7 43.4 268.3 69.3" fill="#c04a1d"/>
          <path d="M325.6,183.3s-73.4-35.1-161-35.1S7.5,183.3,7.5,183.3L34.5,68l264.6,1.4Z" fill="#00557a"/>
          <polygon points="263.5 69.2 64.9 68.2 71 34.5 257.8 35.9 263.5 69.2" fill="#ec5a28"/>
          <g opacity="0.24" style="mix-blend-mode: multiply">
            <path d="M91.8,48h7.4l-.3,2.4H94.1L93.9,52h4.4L98,54.3H93.6l-.5,3.5H90.5Z" fill="#231f20"/>
            <path d="M116.2,48.1h2.5l3.1,9.9h-2.8l-.5-1.8h-3.6l-.8,1.7h-2.7Zm1.7,6-.8-2.8-1.3,2.8Z" fill="#231f20"/>
            <path d="M137.1,48.3h2.4l3.6,5.2.2-5.2h2.5l-.4,9.8h-2.3l-3.7-5.4-.3,5.4h-2.6Z" fill="#231f20"/>
            <path d="M163.3,50.8h-2.8V48.5h8.1v2.4h-2.8v7.4h-2.6Z" fill="#231f20"/>
            <path d="M185.4,48.6h2.5l4.3,9.8h-2.8l-.7-1.7h-3.6l-.6,1.7h-2.7Zm2.5,6-1.1-2.8-1,2.8Z" fill="#231f20"/>
            <path d="M206.1,57l1.3-1.8a5,5,0,0,0,3.1,1.2c.7,0,1-.2,1-.7h0c0-.4-.4-.6-1.6-.9s-3.6-1.1-3.7-3.1h0c-.1-1.8,1.1-3.1,3.3-3.1a6,6,0,0,1,3.9,1.3l-1.1,1.9a4.9,4.9,0,0,0-2.7-1c-.6,0-.9.3-.9.6h0c0,.4.4.6,1.7,1s3.6,1.2,3.7,3.1h0c.2,2-1.2,3.2-3.5,3.1A6.8,6.8,0,0,1,206.1,57Z" fill="#231f20"/>
            <path d="M231.4,55l-4.2-6.1h2.9l2.3,3.6,1.5-3.5h2.9L234,55l.4,3.7h-2.6Z" fill="#231f20"/>
          </g>
          <g>
            <path d="M264.9,85.2c-8.8,0-11.2,6.7-10.4,12.3v.4c1.2,7.2,2.9,10.4,12.8,19.6,11.5,10.3,17.8,18.1,19.3,25.7.5,2.9.4,5.5-2.8,5.5a11.8,11.8,0,0,1-3.3-.6c-3.6-1.1-8.7-3.1-9.8-8.9a9.7,9.7,0,0,1,.4-4.8l-12.2-3.6s-1.1,2.2,0,9.6c.8,5.5,5.2,12.4,11.7,15.6a54.8,54.8,0,0,0,10,3.5,35.5,35.5,0,0,0,9.1,1.5c8.1,0,11.9-5,8.6-18.8-2.9-12.1-10.7-21.2-23-31.3-6.7-5.6-9.4-9-9.4-11.4s2.1-3.8,4.1-3.7l2.6.2c6.3.7,6.7,8.6,6.7,8.6l12.3,4.3-1.3-6.7c-1.3-6.4-6.8-16.9-19.4-16.9Z" fill="#00344d"/>
            <path d="M246.8,85.5l-30.6-.2v.2l4.6,57c6.7,1.1,13.1,2.4,19.3,3.9s9.8,2.2,13.1,3.3l2.1.6-1.6-12.5c-4.8-1.4-10-2.6-21.1-4.6l-1.4-13.8h12.8l-1.4-11.9H230.1l-1-10.3h19.4l-1.6-11.9Z" fill="#00344d"/>
            <path d="M200.1,85.2H188.5l1.8,53.6h.3q9,.7,17.4,1.8l3,.4h.1l5.5.8-.8-11.4c-4-.7-8.6-1.3-13.4-1.7l-2.3-43.4Z" fill="#00344d"/>
            <path d="M185.4,85.2H160.5v34.1l-.2,18.7h13V119.2H181l-.2-11.9h-8.1V97h13.2l-.3-11.9Z" fill="#00344d"/>
            <path d="M156.5,85H131.6v.2l-.7,11.7-.6,10.3-.7,11.9-1.2,20.8,13.1-1.2.8-19.6h8.2l.3-11.9h-8.1l.4-10.3h13.2l.2-11.9Z" fill="#00344d"/>
            <path d="M115.7,84.8H100.8L82.3,147.7q7.1-1.7,14.7-3.2l2.5-7.6,9.3-1.5.2,7,13.5-1.9ZM102.1,125l4.2-20.6h1.1l1,19.8Z" fill="#00344d"/>
            <path d="M56.7,84.5H46L30.9,166.6c3.8-1.8,8.2-3.8,13.1-5.9L49.6,127c2.3-.4,5.1-.9,8-1.7,9.3,4.8,7.9,21.5,8,27.4,4.1-1.4,8.4-2.7,12.9-4.1.8-7.1.2-23.4-8.2-28.5,7.4-3.3,10.4-10.7,11.3-18.6.6-5.2.8-9.1-2.3-12.5s-11.5-4.4-17.2-4.5H56.7Zm-4.8,29L54.8,96H63c4,0,7.9,2.1,7.2,6.9-.4,3.1-2.3,5.4-5.4,7.2s-7,3-12.9,3.4Z" fill="#00344d"/>
          </g>
          <path d="M284.2,101.2l9.2,3.1-1-4.9h-.4Z" fill="#c1d6e2"/>
          <path d="M267.3,95.3c0-4.5,4.8-3.6,6.8-3.4,6.4.6,6.8,8.2,6.8,8.2l3.3,1.1,7.7-1.8h.4l-.3-1.5c-1.3-6.2-6.9-16.2-19.6-16.2h-6.2c-8.9,0-11.3,6.5-10.5,11.8v.4c.8,4.2,1.7,7,4.6,10.6,4.2-.4,8.5-.8,12.7-1.3C269,99.5,267.3,97,267.3,95.3Z" fill="#c1d6e2"/>
          <path d="M276.8,106.2,273,103c-4.2.5-8.4,1-12.7,1.3a72,72,0,0,0,8.4,8.2c11.6,9.9,18.1,17.4,19.5,24.7.7,3.6.3,6.5-6.2,4.7-3.6-1-8.9-2.9-9.9-8.6a8.8,8.8,0,0,1,.4-4.6l-12.4-3.4s-1.1,2.1,0,9.2c.8,5.2,5.3,11.9,11.9,14.9a57.7,57.7,0,0,0,10.1,3.4c14.2,3.7,22.4.9,18-16.6C297.2,124.6,289.3,115.9,276.8,106.2Z" fill="#fff"/>
          <path d="M244,105.6l-.3-2.6H230.9l-1-9.9h19.6l-1.6-11.4H217v.2l2.2,25.6,22.7-1.7Z" fill="#c1d6e2"/>
          <path d="M245.1,114.3l-1.1-8.8-2.2.2-22.7,1.7,2.5,29c6.8,1.1,13.3,2.3,19.5,3.7s9.9,2.1,13.3,3.2l2.1.5-1.7-12c-4.9-1.4-10.1-2.5-21.4-4.4l-1.4-13.2Z" fill="#fff"/>
          <path d="M188.8,81.5l1,27.3,12.2-.5-1.5-26.8Z" fill="#c1d6e2"/>
          <path d="M190.7,132.8h.3q9.1.7,17.6,1.7l3,.4h.1l5.6.8-.9-11c-4-.6-8.7-1.3-13.5-1.7l-.8-14.8-12.2.5Z" fill="#fff"/>
          <path d="M160,114.1l-.2,17.9H173V114.1h8.3V109l-20.9.2Z" fill="#fff"/>
          <path d="M172.7,102.7V92.8H186l-.4-11.4H160.5v27.8l20.9-.2v-6.3Z" fill="#c1d6e2"/>
          <path d="M142.4,102.6l.4-9.9h13.4l.2-11.4H131.2v.2l-.7,11.2-.6,9.9-.4,6,20.9.6.2-6.5Z" fill="#c1d6e2"/>
          <path d="M129.1,114l-1.3,20,13.2-1.1.8-18.8h8.3v-5l-20.9-.6Z" fill="#fff"/>
          <path d="M115,81.2H100.5l-6.7,25.5,9.9.7,1.6-7.7h1.5l1.3,8.5c3.6.2,6.1-.2,9.7,0l-2-26.9Z" fill="#c1d6e2"/>
          <path d="M109.3,119.4l-8.5,1,2.5-13.1-9.9-.7-11.1,34c4.8-1.1,8.3-1.7,13.4-2.6l2.5-7.3,10.7-1.7-.2,6.7c4.7-.7,7.8-1.2,12.7-1.7l-3.8-25.9-9.5-.5Z" fill="#fff"/>
          <path d="M65.8,103.8a14.6,14.6,0,0,1-2.4,1.6c-3.3,1.7-7.1,2.9-13.1,3.2l1.5-8.5a57,57,0,0,1-10.2-5L29.1,159.5c3.8-1.7,8.3-3.6,13.3-5.6l5.7-32.3c2.3-.4,5.1-.9,8.1-1.6,9.5,4.6,8,20.6,8.1,26.2,4.1-1.3,8.5-2.6,13.1-3.9.9-6.8.2-22.4-8.3-27.3a17.2,17.2,0,0,0,9.4-9.7l-8.1-.9Z" fill="#fff"/>
          <path d="M78.2,85.2c-3.7-3.9-11.6-4.2-17.5-4.3H44.4L41.6,95.1a57,57,0,0,0,10.2,5l1.5-8.3h8.3c4,0,8,2,7.3,6.6a8.2,8.2,0,0,1-3.1,5.3l4.5.6,8.1.9a31.8,31.8,0,0,0,2.1-8.2C81.2,92.2,81.4,88.5,78.2,85.2Z" fill="#c1d6e2"/>
          <path d="M266.4,83h6.2c11.7.1,16.7,9.3,17.8,14.8l.9,4.3-9.1-3a11.6,11.6,0,0,0-3-6.2,8.5,8.5,0,0,0-5.3-2.4h-.5l-2.3-.2c-2.5,0-5.5.8-5.5,4.8s2.9,6.4,10.2,12.2c13.4,10.4,20,18.8,22.6,29,1.7,7,1.5,11.7-.8,14.2s-3.6,2.3-6.6,2.2a35.8,35.8,0,0,1-8.7-1.4,55.5,55.5,0,0,1-9.8-3.2c-6.2-2.8-10.2-9.1-10.9-13.7a27,27,0,0,1-.3-7.4l9.1,2.5a10.2,10.2,0,0,0,0,3.7c1.3,7.1,8.5,9.1,11.2,9.9a14.5,14.5,0,0,0,3.9.7,4.6,4.6,0,0,0,3.5-1.2c1.3-1.4,1.1-3.7.7-5.5-1.5-7.3-7.4-14.8-20.2-25.6-10.1-8.8-11.3-11.6-12.5-17.9v-.3a9.7,9.7,0,0,1,1.4-7c1.6-2.2,4.2-3.4,7.8-3.4m-.2-1.4c-8.9,0-11.3,6.5-10.5,11.8v.4c1.3,6.9,2.9,10,13,18.8,11.6,9.9,18.1,17.4,19.5,24.7.6,2.8.4,5.3-2.8,5.2a12.6,12.6,0,0,1-3.4-.6c-3.6-1-8.9-2.9-9.9-8.6a8.8,8.8,0,0,1,.4-4.6l-12.4-3.4s-1.1,2.1,0,9.2c.8,5.2,5.3,11.9,11.9,14.9a57.7,57.7,0,0,0,10.1,3.4,37.8,37.8,0,0,0,9.2,1.4c8.2,0,12.1-4.8,8.7-18-2.9-11.6-10.8-20.3-23.3-30-6.8-5.4-9.5-8.7-9.5-10.9s2.2-3.6,4.2-3.6l2.6.2c6.4.6,6.8,8.2,6.8,8.2l12.5,4.2L292,97.8c-1.3-6.2-6.9-16.2-19.6-16.2Z" fill="#fff"/>
          <path d="M246.6,83.2l1.2,8.5H228.2v1.5l1,9.9v1.5h12.8l1,8.5h-13v1.5l1.4,13.2v1.2l1.3.2c9.7,1.6,15.2,2.7,20,4l1.2,8.9c-3.2-.9-7.6-2-13.2-3.1s-12.2-2.5-18.2-3.5l-4.6-52.1h28m1.3-1.4H217v.2l4.6,54.6c6.8,1.1,13.3,2.3,19.5,3.7s9.9,2.1,13.3,3.2l2.1.5-1.7-12c-4.9-1.4-10.1-2.5-21.4-4.4l-1.4-13.2h13L243.7,103H230.9l-1-9.9h19.6l-1.6-11.4Z" fill="#fff"/>
          <path d="M199.1,83l2.2,40.1v1.3h1.5c3.9.3,7.9.8,12.1,1.4l.6,8-3.6-.5-3.2-.4c-5.5-.7-11-1.2-16.4-1.6L190.4,83h8.8m1.4-1.4H188.8l1.9,51.3h.3q9.1.7,17.6,1.7l3,.4h.1l5.6.8-.9-11c-4-.6-8.7-1.3-13.5-1.7l-2.3-41.6Z" fill="#fff"/>
          <path d="M184.2,83l.2,8.5H171.1v12.8h8.2l.2,8.5h-8.3v17.9h-9.9l.2-16.5V82.8h22.3m1.5-1.4H160.5v32.7l-.2,17.9H173V114.1h8.3l-.2-11.4h-8.2V92.8H186l-.4-11.4Z" fill="#fff"/>
          <path d="M154.9,82.8l-.2,8.5H141.3v1.5l-.4,9.9v1.5H149l-.3,8.5h-8.3V114l-.8,17.4-9.9.9,1.1-18.3.7-11.4.6-9.9.6-10h22.3m1.5-1.4H131.2v.2l-.7,11.2-.6,9.9-.7,11.4-1.3,20,13.2-1.1.8-18.8h8.3l.3-11.4h-8.2l.4-9.9h13.4l.2-11.4Z" fill="#fff"/>
          <path d="M113.5,82.6l6.6,50.6-9.8,1.3-.5-6.6-11.4,1.7-1.2.2-.3,1-2.2,6.4-11,2.2,17.3-56.8m8.4,38.2-1.9-22.3h-3.4l-5.6,23.7Zm5.5-39.6H100L81.3,141.4q7.2-1.6,14.9-3l2.5-7.3,9.5-1.4.2,6.7,13.7-1.9Zm-13.8,38.5,4.2-19.7h1.1l1.1,19Z" fill="#fff"/>
          <path d="M55,82.3h5.5c6.4,0,13.4.5,16.7,3.9s2.6,6.2,2,10.9c-1.1,8.6-4.5,14-10.5,16.5l-2.9,1.2,2.4,1.4c7.1,4.1,8.5,17,7.8,25l-10.1,3v-.6c.1-7.2.2-20.6-8.8-25l-.4-.2h-.5c-2.5.6-5.2,1.1-8,1.6l-1.3.2-.2,1.2L41,152.9l-9.9,4.1L45.5,82.3H55m-6.4,27.9h1.6c5.7-.3,9.9-1.4,13.8-3.4s5.9-4.7,6.4-8.1-1.9-8-8.5-8.1H52.2l-.3,1.5-3,16.8-.3,1.6m6.6-29.3H44.4L29.1,159.5c3.8-1.7,8.3-3.6,13.3-5.6l5.7-32.3c2.3-.4,5.1-.9,8.1-1.6,9.5,4.6,8,20.6,8.1,26.2,4.1-1.3,8.5-2.6,13.1-3.9.9-6.8.2-22.4-8.3-27.3,7.5-3.1,10.5-10.2,11.5-17.8.6-5,.8-8.7-2.3-12s-11.6-4.2-17.5-4.3H55.3Zm-4.9,27.8,2.9-16.7h8.3c4,0,8,2,7.3,6.6-.4,3-2.3,5.2-5.5,6.9s-7.1,2.9-13.1,3.2Z" fill="#fff"/>
          <polygon points="65.5 64.6 64.9 68.1 263.5 69.2 262.8 65.2 65.5 64.6" fill="#c04a1d"/>
          <g>
            <path d="M89.9,45.8h7.6l-.3,2.4h-5l-.2,1.7h4.5l-.3,2.3H91.6l-.5,3.5H88.5Z" fill="#fff"/>
            <path d="M114.9,45.9h2.5l3.2,9.9h-2.9l-.5-1.8h-3.7l-.9,1.7h-2.8Zm1.7,6-.8-2.8-1.3,2.8Z" fill="#fff"/>
            <path d="M136.4,46.1h2.4l3.7,5.2.2-5.2h2.6l-.4,9.8h-2.3l-3.8-5.4-.3,5.4h-2.6Z" fill="#fff"/>
            <path d="M163.3,48.6h-2.8V46.3h8.3v2.4h-2.8V56h-2.7Z" fill="#fff"/>
            <path d="M186,46.3h2.5l4.5,9.8h-2.9l-.8-1.7h-3.7l-.6,1.7h-2.8Zm2.5,6-1.2-2.8-1,2.8Z" fill="#fff"/>
            <path d="M207.2,54.8l1.3-1.8a5.3,5.3,0,0,0,3.2,1.2c.7,0,1.1-.2,1-.7h0c0-.4-.4-.6-1.7-.9s-3.7-1.1-3.8-3.1h0c-.1-1.8,1.2-3.1,3.4-3.1a6.3,6.3,0,0,1,4,1.3l-1.2,1.9a5.1,5.1,0,0,0-2.7-1c-.6,0-.9.3-.9.6h0c0,.4.4.6,1.7,1s3.7,1.2,3.8,3.1h0c.2,2-1.3,3.2-3.6,3.1A7.2,7.2,0,0,1,207.2,54.8Z" fill="#fff"/>
            <path d="M233.2,52.8l-4.3-6.1h3l2.4,3.6,1.5-3.5h2.9l-2.8,6,.5,3.7h-2.7Z" fill="#fff"/>
          </g>
        </g>
      </g>
    </g>
  </g>
</svg>
